<?xml version="1.0" encoding="UTF-8" standalone="no"?>
<!DOCTYPE svg PUBLIC "-//W3C//DTD SVG 1.1//EN"
"http://www.w3.org/Graphics/SVG/1.1/DTD/svg11.dtd">


<!-- Page 1 -->
<svg x="0" y="0" width="194" height="54" viewBox="0 0 194 54" version="1.1" xmlns="http://www.w3.org/2000/svg" xmlns:xlink="http://www.w3.org/1999/xlink"
style="display: block;margin-left: auto;margin-right: auto;">
<defs>
<clipPath id="c_1"><path d="M0,0H194V54H0Z"/></clipPath>
<style type="text/css"><![CDATA[

.g0{
fill: #002A3F;
}

]]></style>

</defs>
<g clip-path="url(#c_1)">
<path d="M0,0
L0,54
L194,54
L194,0 Z " 
fill="#FFFFFF" stroke="none"/>
<path d="M25.7,27.6c3.3,0,5.9,-2.6,5.9,-5.8V11.6H19.9V21.8c0,3.2,2.6,5.8,5.8,5.8Z" class="g0"/>
<path d="M35.4,11.6V21.8c0,4.6,-3.4,8.5,-7.8,9.4V41H40.5V11.6Z" class="g0"/>
<path d="M23.9,31.2c-4.4,-.9,-7.8,-4.8,-7.8,-9.4V11.6H11V41H23.9Z" class="g0"/>
<path d="M64,17.7h2.4v17H64V26.9H55.7v7.8H53.3v-17h2.4v7.1H64Z" class="g0"/>
<path d="M69,37.1c.2,.1,.4,.2,.7,.2c.3,.1,.6,.1,.8,.1c.9,0,1.6,-.2,2.1,-.6c.6,-.4,1,-1,1.4,-1.9c-1,-2,-2,-4.1,-2.9,-6.3c-.9,-2.2,-1.6,-4.4,-2.2,-6.7h2.5c.2,.8,.4,1.6,.6,2.4c.3,.9,.6,1.8,.9,2.7c.3,.9,.6,1.8,1,2.7c.3,.9,.7,1.7,1.1,2.6c.6,-1.8,1.2,-3.5,1.6,-5.2c.5,-1.6,.9,-3.4,1.3,-5.2h2.4c-.6,2.4,-1.3,4.8,-2,7c-.7,2.2,-1.5,4.3,-2.3,6.2c-.3,.7,-.7,1.4,-1,1.9c-.4,.5,-.8,1,-1.2,1.3c-.4,.4,-.9,.6,-1.4,.8c-.6,.2,-1.2,.2,-1.8,.2c-.2,0,-.4,0,-.6,0c-.2,0,-.4,-.1,-.6,-.1c-.2,0,-.3,-.1,-.5,-.1c-.2,-.1,-.3,-.1,-.3,-.2Z" class="g0"/>
<path d="M91.6,28.4c0,-1.5,-.4,-2.7,-1.1,-3.5c-.8,-.8,-1.8,-1.2,-3,-1.2c-.7,0,-1.2,0,-1.6,.1c-.4,0,-.7,.1,-.9,.2v8c.3,.2,.7,.5,1.2,.7c.5,.2,1.1,.3,1.7,.3c.7,0,1.2,-.1,1.7,-.4c.5,-.2,.8,-.5,1.1,-.9c.3,-.5,.5,-1,.7,-1.5c.1,-.6,.2,-1.2,.2,-1.8m2.3,0c0,.9,-.1,1.8,-.3,2.6c-.3,.8,-.7,1.6,-1.2,2.1c-.4,.6,-1,1.1,-1.8,1.4c-.7,.3,-1.5,.5,-2.4,.5c-.7,0,-1.4,-.1,-2,-.3c-.5,-.2,-.9,-.4,-1.2,-.6v5.2H82.7v-17c.5,-.1,1.2,-.2,2,-.4c.8,-.2,1.8,-.2,2.8,-.2c1,0,1.9,.1,2.7,.4c.8,.3,1.4,.8,2,1.4c.6,.5,1,1.2,1.3,2.1c.3,.8,.4,1.7,.4,2.8Z" class="g0"/>
<path d="M105.2,27.1c0,-1,-.2,-1.9,-.8,-2.5c-.5,-.7,-1.2,-1,-2.2,-1c-.5,0,-.9,.1,-1.3,.3c-.4,.2,-.8,.4,-1.1,.8c-.2,.3,-.5,.7,-.6,1.1c-.2,.4,-.3,.9,-.3,1.3Zm-8.7,1.3c0,-1.2,.1,-2.2,.4,-3c.4,-.9,.8,-1.6,1.3,-2.1c.6,-.6,1.2,-1,1.9,-1.3c.7,-.2,1.4,-.4,2.2,-.4c1.7,0,3,.6,3.9,1.6c.9,1.1,1.4,2.7,1.4,4.9v.4c0,.2,0,.3,0,.4H98.8c.1,1.4,.5,2.4,1.2,3.1c.7,.7,1.7,1,3.1,1c.8,0,1.5,-.1,2.1,-.2c.5,-.2,.9,-.3,1.2,-.4l.3,1.9c-.3,.1,-.7,.3,-1.4,.5c-.7,.1,-1.5,.2,-2.4,.2c-1.1,0,-2.1,-.2,-2.9,-.5c-.8,-.3,-1.5,-.8,-2,-1.4c-.5,-.6,-.9,-1.3,-1.2,-2.1c-.2,-.8,-.3,-1.7,-.3,-2.6Z" class="g0"/>
<path d="M115.6,21.7c.2,0,.4,0,.7,0c.2,0,.5,.1,.7,.1c.3,0,.5,.1,.7,.1c.2,.1,.4,.1,.5,.1l-.4,2c-.2,0,-.5,-.1,-.9,-.2c-.4,-.1,-1,-.1,-1.6,-.1c-.5,0,-.9,0,-1.3,.1c-.4,.1,-.7,.1,-.8,.2V34.7h-2.3V22.5c.5,-.2,1.2,-.4,2,-.6c.8,-.1,1.7,-.2,2.7,-.2Z" class="g0"/>
<path d="M122.5,21.9h4.9v2h-4.9v5.9c0,.6,.1,1.1,.2,1.5c.1,.5,.2,.8,.4,1c.2,.3,.4,.4,.7,.5c.3,.1,.7,.2,1.1,.2c.7,0,1.2,-.1,1.6,-.3c.4,-.1,.7,-.2,.9,-.3l.4,1.9c-.2,.1,-.6,.3,-1.2,.4c-.5,.2,-1.2,.3,-1.9,.3c-.9,0,-1.6,-.1,-2.2,-.3c-.5,-.3,-1,-.6,-1.3,-1c-.4,-.5,-.6,-1,-.8,-1.7c-.1,-.6,-.2,-1.4,-.2,-2.2V18.4l2.3,-.4Z" class="g0"/>
<path d="M140.4,34.3c-.5,.2,-1.2,.3,-2.1,.5c-.8,.1,-1.8,.2,-2.9,.2c-1,0,-1.8,-.2,-2.5,-.4c-.7,-.3,-1.2,-.7,-1.6,-1.3c-.4,-.5,-.7,-1.1,-.9,-1.8c-.2,-.7,-.3,-1.5,-.3,-2.4V21.9h2.3v6.7c0,1.6,.2,2.7,.7,3.4c.5,.6,1.3,1,2.5,1c.3,0,.5,0,.8,-.1c.2,0,.5,0,.7,0c.2,0,.4,-.1,.6,-.1c.2,0,.4,0,.4,-.1V21.9h2.3Z" class="g0"/>
<path d="M144.4,22.3c.5,-.1,1.2,-.3,2,-.4c.9,-.2,1.9,-.2,3,-.2c1.1,0,1.9,.1,2.6,.4c.6,.3,1.2,.7,1.6,1.2c.4,.5,.7,1.1,.8,1.9c.2,.7,.3,1.5,.3,2.3v7.2h-2.3V28c0,-.8,-.1,-1.4,-.2,-2c-.1,-.5,-.3,-1,-.5,-1.3c-.2,-.4,-.6,-.6,-1,-.8c-.4,-.1,-.9,-.2,-1.5,-.2c-.3,0,-.5,0,-.8,0c-.2,0,-.5,0,-.7,.1c-.3,0,-.5,0,-.7,.1c-.1,0,-.3,0,-.4,0V34.7h-2.2Z" class="g0"/>
<path d="M160.7,34.7h-2.2V21.9h2.2V34.7ZM159.6,19.6c-.4,0,-.8,-.1,-1.1,-.4c-.2,-.2,-.4,-.6,-.4,-1.1c0,-.4,.2,-.8,.4,-1.1c.3,-.2,.7,-.4,1.1,-.4c.4,0,.7,.2,1,.4c.3,.3,.5,.7,.5,1.1c0,.5,-.2,.9,-.5,1.1c-.3,.3,-.6,.4,-1,.4Z" class="g0"/>
<path d="M166.8,21.9h4.8v2h-4.8v5.9c0,.6,.1,1.1,.2,1.5c.1,.5,.2,.8,.4,1c.2,.3,.4,.4,.7,.5c.3,.1,.7,.2,1.1,.2c.7,0,1.2,-.1,1.6,-.3c.4,-.1,.7,-.2,.9,-.3l.4,1.9c-.2,.1,-.6,.3,-1.2,.4c-.5,.2,-1.2,.3,-1.9,.3c-.9,0,-1.6,-.1,-2.2,-.3c-.5,-.3,-1,-.6,-1.3,-1c-.4,-.5,-.6,-1,-.8,-1.7c-.1,-.6,-.2,-1.4,-.2,-2.2V18.4l2.3,-.4Z" class="g0"/>
<path d="M182.7,21.9v7.9c0,1.8,-1.4,3.2,-3.2,3.2c-1.7,0,-3.2,-1.4,-3.2,-3.2V21.9h-1.9v7.9c0,2.5,1.7,4.6,4.1,5.1v7.6h2V34.9c2.4,-.5,4.2,-2.6,4.2,-5.1V21.9Z" class="g0"/>

</g>
</svg>
