<?xml version="1.0" encoding="UTF-8" standalone="no"?>
<!DOCTYPE svg PUBLIC "-//W3C//DTD SVG 1.1//EN"
"http://www.w3.org/Graphics/SVG/1.1/DTD/svg11.dtd">


<!-- Page 1 -->
<svg x="0" y="0" width="239" height="54" viewBox="0 0 239 54" version="1.1" xmlns="http://www.w3.org/2000/svg" xmlns:xlink="http://www.w3.org/1999/xlink"
style="display: block;margin-left: auto;margin-right: auto;">
<defs>
<clipPath id="c_1"><path d="M0,0H239V54H0Z"/></clipPath>
<style type="text/css"><![CDATA[

.g0{
fill: #002A3F;
}
.g1{
fill: #F2F2F3;
}
.g2{
fill: #FFFFFF;
}

]]></style>

</defs>
<g clip-path="url(#c_1)">
<path d="M0,0
L0,54
L239,54
L239,0 Z " 
fill="#FFFFFF" stroke="none"/>
<path d="M0,54.1H239.3V0H0V54.1Z" class="g0"/>
<path d="M48.5,26.8c3.2,0,5.9,-2.6,5.9,-5.8V10.8H42.7V21c0,3.2,2.6,5.8,5.8,5.8Z" class="g1"/>
<path d="M58.1,10.8V21c0,4.7,-3.3,8.6,-7.7,9.4v9.9H63.2V10.8Z" class="g1"/>
<path d="M46.6,30.4C42.2,29.6,38.9,25.7,38.9,21V10.8H33.8V40.3H46.6Z" class="g1"/>
<path d="M86.8,16.9h2.4V34H86.8V26.1H78.5V34H76.1V16.9h2.4V24h8.3Z" class="g2"/>
<path d="M91.8,36.3c.2,.1,.4,.2,.7,.3c.3,.1,.5,.1,.8,.1c.9,0,1.6,-.2,2.1,-.6c.5,-.4,1,-1.1,1.4,-2c-1,-1.9,-2,-4,-2.9,-6.2C93,25.7,92.3,23.5,91.7,21.2h2.5c.1,.7,.4,1.5,.6,2.4c.3,.8,.5,1.7,.9,2.6c.3,.9,.6,1.8,1,2.7c.3,.9,.7,1.8,1.1,2.6c.6,-1.7,1.2,-3.4,1.6,-5.1c.5,-1.7,.9,-3.4,1.3,-5.2h2.4c-.6,2.4,-1.3,4.7,-2,6.9c-.7,2.3,-1.5,4.3,-2.3,6.3c-.4,.7,-.7,1.3,-1,1.9c-.4,.5,-.8,.9,-1.2,1.3c-.4,.3,-.9,.6,-1.5,.7c-.5,.2,-1.1,.3,-1.8,.3c-.1,0,-.3,0,-.5,-.1c-.2,0,-.4,0,-.6,0c-.2,-.1,-.4,-.1,-.5,-.2c-.2,0,-.3,-.1,-.3,-.1Z" class="g2"/>
<path d="M114.3,27.6c0,-1.5,-.3,-2.6,-1.1,-3.4c-.7,-.8,-1.7,-1.2,-2.9,-1.2c-.7,0,-1.2,0,-1.6,0c-.4,.1,-.7,.1,-.9,.2v8.1c.2,.2,.6,.4,1.2,.6c.5,.2,1.1,.3,1.7,.3c.6,0,1.2,-.1,1.7,-.3c.4,-.2,.8,-.6,1.1,-1c.3,-.4,.5,-.9,.7,-1.5c.1,-.5,.1,-1.1,.1,-1.8m2.4,0c0,1,-.1,1.9,-.4,2.7c-.2,.8,-.6,1.5,-1.1,2.1c-.5,.6,-1.1,1,-1.8,1.4c-.7,.3,-1.5,.5,-2.4,.5c-.8,0,-1.4,-.1,-2,-.3c-.5,-.2,-1,-.4,-1.2,-.6v5.1h-2.3V21.6c.5,-.1,1.2,-.3,2,-.4c.8,-.2,1.8,-.3,2.8,-.3c1,0,1.9,.2,2.7,.5c.8,.3,1.4,.7,2,1.3c.5,.6,1,1.3,1.3,2.1c.3,.8,.4,1.8,.4,2.8Z" class="g2"/>
<path d="M128,26.4c0,-1.1,-.2,-1.9,-.8,-2.6c-.5,-.7,-1.2,-1,-2.2,-1c-.5,0,-1,.1,-1.4,.3c-.4,.2,-.7,.5,-1,.8c-.3,.3,-.5,.7,-.6,1.1c-.2,.5,-.3,.9,-.3,1.4Zm-8.8,1.2c0,-1.1,.2,-2.1,.5,-3c.4,-.8,.8,-1.5,1.3,-2.1c.6,-.5,1.2,-.9,1.9,-1.2c.7,-.3,1.4,-.4,2.2,-.4c1.7,0,3,.5,3.9,1.6c.9,1.1,1.4,2.7,1.4,4.9v.4c0,.1,0,.3,0,.4h-8.8c.1,1.3,.5,2.3,1.2,3c.6,.7,1.7,1,3.1,1c.8,0,1.5,0,2,-.2c.6,-.1,1,-.2,1.3,-.4l.3,2c-.3,.1,-.8,.3,-1.5,.4c-.7,.2,-1.4,.3,-2.3,.3c-1.1,0,-2.1,-.2,-2.9,-.5c-.8,-.4,-1.5,-.8,-2,-1.4c-.5,-.6,-.9,-1.3,-1.2,-2.1c-.2,-.8,-.4,-1.7,-.4,-2.7Z" class="g2"/>
<path d="M138.4,20.9c.2,0,.4,0,.7,.1c.2,0,.5,0,.7,.1c.3,0,.5,0,.7,.1c.2,0,.4,.1,.5,.1l-.4,2c-.2,-.1,-.5,-.2,-.9,-.3c-.5,0,-1,-.1,-1.6,-.1c-.5,0,-.9,.1,-1.3,.1c-.4,.1,-.7,.2,-.8,.2V34h-2.3V21.7c.5,-.2,1.2,-.3,2,-.5c.8,-.2,1.7,-.3,2.7,-.3Z" class="g2"/>
<path d="M145.3,21.2h4.8v1.9h-4.8V29c0,.6,0,1.2,.1,1.6c.1,.4,.3,.7,.5,1c.2,.2,.4,.4,.7,.5c.3,.1,.7,.1,1.1,.1c.6,0,1.2,-.1,1.6,-.2c.4,-.2,.7,-.3,.9,-.3l.4,1.9c-.2,.1,-.6,.2,-1.2,.4c-.5,.2,-1.2,.2,-1.9,.2c-.9,0,-1.6,-.1,-2.2,-.3c-.6,-.2,-1,-.5,-1.4,-1c-.3,-.4,-.5,-1,-.7,-1.6c-.1,-.7,-.2,-1.4,-.2,-2.3V17.6l2.3,-.4Z" class="g2"/>
<path d="M163.2,33.6c-.5,.1,-1.2,.3,-2.1,.4c-.8,.2,-1.8,.2,-3,.2c-.9,0,-1.8,-.1,-2.4,-.4c-.7,-.3,-1.2,-.7,-1.7,-1.2c-.4,-.5,-.7,-1.1,-.8,-1.9c-.2,-.7,-.3,-1.5,-.3,-2.3V21.2h2.3v6.7c0,1.5,.2,2.6,.7,3.3c.5,.7,1.3,1,2.5,1c.2,0,.5,0,.8,0c.2,0,.5,0,.7,-.1c.2,0,.4,0,.6,0c.2,-.1,.3,-.1,.4,-.1V21.2h2.3Z" class="g2"/>
<path d="M167.1,21.6c.6,-.2,1.3,-.3,2.1,-.5c.9,-.1,1.9,-.2,3,-.2c1,0,1.9,.2,2.6,.5c.6,.2,1.2,.6,1.6,1.2c.4,.5,.6,1.1,.8,1.8c.2,.7,.3,1.5,.3,2.4V34h-2.3V27.3c0,-.8,-.1,-1.5,-.2,-2c-.1,-.6,-.3,-1,-.5,-1.4c-.3,-.3,-.6,-.6,-1,-.7c-.4,-.2,-.9,-.3,-1.5,-.3c-.3,0,-.5,0,-.8,.1c-.2,0,-.5,0,-.7,0c-.3,0,-.5,.1,-.7,.1c-.2,0,-.3,.1,-.4,.1V34h-2.3Z" class="g2"/>
<path d="M183.5,34h-2.3V21.2h2.3V34ZM182.4,18.9c-.4,0,-.8,-.2,-1.1,-.4c-.3,-.3,-.4,-.7,-.4,-1.1c0,-.5,.1,-.8,.4,-1.1c.3,-.3,.7,-.4,1.1,-.4c.4,0,.7,.1,1,.4c.3,.3,.4,.6,.4,1.1c0,.4,-.1,.8,-.4,1.1c-.3,.2,-.6,.4,-1,.4Z" class="g2"/>
<path d="M189.6,21.2h4.8v1.9h-4.8V29c0,.6,0,1.2,.1,1.6c.1,.4,.3,.7,.5,1c.2,.2,.4,.4,.7,.5c.3,.1,.7,.1,1,.1c.7,0,1.3,-.1,1.7,-.2c.4,-.2,.7,-.3,.9,-.3l.4,1.9c-.2,.1,-.6,.2,-1.2,.4c-.6,.2,-1.2,.2,-1.9,.2c-.9,0,-1.6,-.1,-2.2,-.3c-.6,-.2,-1,-.5,-1.4,-1c-.3,-.4,-.5,-1,-.7,-1.6c-.1,-.7,-.2,-1.4,-.2,-2.3V17.6l2.3,-.4Z" class="g2"/>
<path d="M205.5,21.2v7.9c0,1.7,-1.5,3.1,-3.2,3.1c-1.8,0,-3.2,-1.4,-3.2,-3.1V21.2h-2v7.9c0,2.5,1.8,4.6,4.2,5v7.7h2V34.1c2.4,-.4,4.2,-2.5,4.2,-5V21.2Z" class="g2"/>

</g>
</svg>
